<?xml version="1.0"?>
<svg xmlns="http://www.w3.org/2000/svg" height="512px" viewBox="-28 0 511 511.9999" width="512px"><path d="m133 290.199219c0 14.097656 9.058594 26.121093 21.652344 30.554687 9.230468 33.308594 52.941406 59.320313 71.671875 59.320313 18.574219 0 61.734375-25.566407 71.425781-58.46875 14.066406-3.511719 24.507812-16.257813 24.507812-31.394531 0-14.398438-9.453124-26.632813-22.46875-30.824219v-9.0625h2.125c6.15625 0 11.164063-5.003907 11.164063-11.164063v-52.058594c0-9.359374-4.757813-17.640624-11.984375-22.535156v-3.457031c0-6.246094-5.609375-11.132813-12.757812-11.132813h-104.878907c-26.140625 0-46.625 15.128907-46.625 34.441407v53.664062c0 7.9375 6.777344 14.355469 16.027344 15.796875v6.46875c-11.652344 4.902344-19.859375 16.4375-19.859375 29.851563zm19.859375 12.015625c-3-3.125-4.84375-7.347656-4.84375-12.015625 0-4.664063 1.84375-8.890625 4.84375-12.011719zm146.929687-26.25c4.496094 3.144531 7.449219 8.359375 7.449219 14.246094 0 5.886718-2.953125 11.101562-7.449219 14.234374zm-15.015624 31.957031c0 29.945313-44.746094 57.136719-58.449219 57.136719-11.320313 0-44.828125-19.042969-55.28125-42.980469-4.21875-9.636719-3.164063-10.214844-3.164063-67.898437 1.230469-.183594 43.660156 2.828124 87.101563-25.511719 2.5625 12.355469 13.523437 21.65625 26.628906 21.65625h3.164063zm12.65625-124.675781c1.121093 3.308594.410156 1.253906.628906 52.0625-10.058594 0-10.539063 0-16.449219 0-6.71875 0-12.171875-5.46875-12.171875-12.175782v-5.1875c11.011719-9.292968 22.222656-21.507812 27.992188-34.699218zm-145.578126 54.402344v-53.230469c0-6.355469 5.285157-12.125 13.242188-15.6875 5.207031-2.34375 11.574219-3.734375 18.363281-3.734375h102.617188c-.3125.738281 3.148437 12.652344-18.699219 34.5-2.535156 2.511718-6.890625 6.546875-12.957031 11.101562-47.332031 35.558594-91.257813 27.296875-97.613281 28.5625-2.53125 0-4.390626-.914062-4.953126-1.511718zm0 0" fill="#D80027"/><path d="m258.28125 283.203125c-6.25 2.738281-6.1875 11.65625.070312 14.335937v.011719c5.128907 2.179688 10.894532-1.578125 10.894532-7.199219 0-5.726562-5.9375-9.398437-10.964844-7.148437zm0 0" fill="#D80027"/><path d="m249.363281 256.652344c-4.054687.839844-6.660156 4.816406-5.816406 8.878906.851563 4.054688 4.824219 6.660156 8.878906 5.816406 5.363281-1.105468 15.554688-1.625 20.183594 1.3125 1.242187.769532 2.625 1.152344 3.984375 1.152344 7.53125 0 10.359375-9.882812 4.003906-13.867188-8.335937-5.246093-21.753906-5.289062-31.234375-3.292968zm0 0" fill="#D80027"/><path d="m193.828125 282.542969c-4.316406 0-7.820313 3.492187-7.820313 7.808593 0 4.3125 3.503907 7.816407 7.820313 7.816407 4.433594 0 7.808594-3.609375 7.808594-7.816407 0-4.335937-3.511719-7.808593-7.808594-7.808593zm0 0" fill="#D80027"/><path d="m211.710938 265.53125c.839843-4.0625-1.765626-8.039062-5.820313-8.878906-1.949219-.410156-18.988281-3.695313-30.394531 2.800781h-.007813c-4.53125 2.429687-5.386719 7.34375-3.195312 10.84375 2.175781 3.4375 6.738281 4.605469 10.351562 2.363281 4.707031-2.957031 14.777344-2.417968 20.195313-1.3125 4.042968.84375 8.019531-1.761718 8.871094-5.816406zm0 0" fill="#D80027"/><path d="m242.65625 313.777344c-4.144531 0-7.507812 3.359375-7.507812 7.507812 0 4.148438-3.375 7.523438-7.519532 7.523438-4.148437 0-7.523437-3.375-7.523437-7.523438 0-4.148437-3.363281-7.507812-7.507813-7.507812-4.148437 0-7.507812 3.359375-7.507812 7.507812 0 12.429688 10.109375 22.539063 22.539062 22.539063 22.230469 0 29.5625-30.046875 15.027344-30.046875zm0 0" fill="#D80027"/><path d="m389.273438 341.773438-33.210938-19.175782c21.09375-40.597656 21.996094-89.183594.863281-131.460937l33.304688-19.226563c22.738281 25.429688 64.523437 9.09375 64.523437-24.617187 0-28.328125-30.859375-46.160157-55.433594-31.972657-14.910156 8.609376-22.179687 26.730469-16.605468 43.585938l-33.195313 19.164062c-24.707031-38.753906-66.890625-63.777343-113.425781-66.492187v-38.421875c16.789062-3.476562 29.445312-18.378906 29.445312-36.183594 0-24.769531-23.988281-42.523437-47.652343-35.375-3.96875 1.199219-6.214844 5.386719-5.015625 9.359375 1.199218 3.96875 5.386718 6.210938 9.355468 5.015625 14.074219-4.253906 28.292969 6.328125 28.292969 21 0 12.097656-9.839843 21.9375-21.933593 21.9375-14.296876 0-24.882813-13.574218-21.21875-27.523437 1.054687-4.011719-1.34375-8.117188-5.355469-9.171875-4.015625-1.050782-8.117188 1.347656-9.171875 5.359375-5.390625 20.550781 7.65625 41.316406 28.238281 45.582031v38.296875c-45.160156 2.046875-88.175781 25.417969-114.269531 65.027344l-33.3125-19.234375c7.90625-23.90625-10.011719-48.539063-35.054688-48.539063-20.316406 0-36.984375 16.507813-36.984375 36.929688 0 33.871093 41.945313 49.867187 64.527344 24.613281l33.222656 19.183594c-7.273437 14.011718-12.320312 29.308594-14.714843 45.398437-.609376 4.101563 2.21875 7.921875 6.320312 8.535157 4.105469.605468 7.921875-2.222657 8.535156-6.324219 6.929688-46.558594 38.566406-85.78125 82.570313-102.355469 67.820312-25.550781 142.214843 9.730469 167.035156 75.617188 25.546875 67.820312-9.734375 142.210937-75.621094 167.03125-81.109375 30.558593-168.8125-25.964844-175.054687-111.988282-.300782-4.136718-3.90625-7.234375-8.035156-6.945312-4.132813.296875-7.242188 3.894531-6.945313 8.03125 1.328125 18.242187 6.15625 36.695312 15.03125 54.453125l-33.300781 19.226562c-22.691406-25.375-64.527344-9.019531-64.527344 24.613281 0 28.007813 30.597656 46.3125 55.433594 31.976563 11.398437-6.582031 18.480468-18.855469 18.480468-32.03125 0-3.933594-.644531-7.835937-1.875-11.554687l33.195313-19.167969c24.707031 38.757812 66.894531 63.78125 113.425781 66.496093v38.417969c-16.785156 3.480469-29.441406 18.382813-29.441406 36.183594 0 20.375 16.574219 36.953125 36.949219 36.953125 20.378906 0 36.953125-16.578125 36.953125-36.953125 0-17.800781-12.65625-32.703125-29.441406-36.183594v-38.296875c44.839843-2.027344 87.996093-25.058594 114.273437-65.019531l33.304687 19.226563c-5.5625 16.820312 1.660157 34.957031 16.605469 43.585937 2.953125 1.707031 8.742188 4.179687 11.753907 4.179687 8.882812 0 10.332031-12.789062 1.710937-14.816406-14.234375-3.347656-21.347656-19.574218-13.984375-32.332031 11.1875-19.375 40.9375-11.441406 40.9375 10.996094 0 5.773437-2.320312 11.347656-6.367188 15.433593-2.921874 2.945313-2.898437 7.699219.046876 10.617188 2.945312 2.917969 7.699218 2.898438 10.617187-.050781 6.707031-6.765625 10.71875-16.09375 10.71875-26 0-34.078125-41.996094-49.808594-64.523437-24.613281zm28.496093-216.390626c22.378907 0 30.382813 29.742188 10.996094 40.933594-14.53125 8.394532-32.90625-2.128906-32.90625-18.96875 0-12.058594 9.804687-21.964844 21.910156-21.964844zm-360.359375 31.246094c-3.90625 6.769532-11.195312 10.972656-19.023437 10.972656-16.65625 0-27.460938-18.195312-18.96875-32.90625 11.1875-19.375 40.9375-11.445312 40.9375 10.992188 0 3.824219-1.019531 7.609375-2.945313 10.941406zm-19.925781 230.011719c-22.378906 0-30.382813-29.742187-10.996094-40.9375 14.664063-8.464844 32.910157 2.253906 32.910157 18.96875 0 12.0625-9.808594 21.96875-21.914063 21.96875zm211.121094 88.40625c0 12.097656-9.839844 21.9375-21.9375 21.9375-12.09375 0-21.933594-9.84375-21.933594-21.9375s9.839844-21.933594 21.933594-21.933594c12.097656 0 21.9375 9.839844 21.9375 21.933594zm0 0" fill="#D80027"/></svg>
